<svg viewBox="0 0 492 492" xmlns="http://www.w3.org/2000/svg" xmlns:xlink="http://www.w3.org/1999/xlink"><style>:root&gt;svg{display:none}:root&gt;svg:target{display:block}</style><svg viewBox="0 0 60 15" id="arrow" xmlns="http://www.w3.org/2000/svg"><path d="M.793 6.793a1 1 0 000 1.414l6.364 6.364a1 1 0 001.414-1.414L2.914 7.5l5.657-5.657A1 1 0 007.157.43L.793 6.793zM59.5 6.5h-58v2h58v-2z"/></svg><svg viewBox="0 0 22 27" id="arrow-down" xmlns="http://www.w3.org/2000/svg"><path d="M11 0v24m0 0l9-8.972M11 24l-9-8.972"/></svg><svg viewBox="0 0 21 20" id="at" xmlns="http://www.w3.org/2000/svg"><path d="M10.5 13.125a3.125 3.125 0 100-6.25 3.125 3.125 0 000 6.25z"/><path d="M14.648 16.25A7.5 7.5 0 1118 10c0 1.726-.625 3.125-2.188 3.125-1.562 0-2.187-1.399-2.187-3.125V6.875"/></svg><svg viewBox="0 0 14 10" id="check" xmlns="http://www.w3.org/2000/svg"><path d="M1 3.5L5.5 8l7-7"/></svg><svg viewBox="0 0 491.996 491.996" id="chevron" xmlns="http://www.w3.org/2000/svg"><path d="M484.132 124.986l-16.116-16.228c-5.072-5.068-11.82-7.86-19.032-7.86-7.208 0-13.964 2.792-19.036 7.86l-183.84 183.848L62.056 108.554c-5.064-5.068-11.82-7.856-19.028-7.856s-13.968 2.788-19.036 7.856l-16.12 16.128c-10.496 10.488-10.496 27.572 0 38.06l219.136 219.924c5.064 5.064 11.812 8.632 19.084 8.632h.084c7.212 0 13.96-3.572 19.024-8.632l218.932-219.328c5.072-5.064 7.856-12.016 7.864-19.224 0-7.212-2.792-14.068-7.864-19.128z"/></svg><svg viewBox="0 0 21 20" id="clock" xmlns="http://www.w3.org/2000/svg"><path d="M10.5 17.5a7.5 7.5 0 100-15 7.5 7.5 0 000 15z"/><path d="M10.5 5.625V10h4.375"/></svg><svg viewBox="0 0 17 17" id="close" xmlns="http://www.w3.org/2000/svg"><path d="M1 1l15 15m0-15L1 16"/></svg><svg viewBox="0 0 33 33" id="grid" xmlns="http://www.w3.org/2000/svg"><path d="M0 2a2 2 0 012-2h9.327a2 2 0 012 2v9.327a2 2 0 01-2 2H2a2 2 0 01-2-2V2zm0 19.673a2 2 0 012-2h9.327a2 2 0 012 2V31a2 2 0 01-2 2H2a2 2 0 01-2-2v-9.327zM19.673 2a2 2 0 012-2H31a2 2 0 012 2v9.327a2 2 0 01-2 2h-9.327a2 2 0 01-2-2V2zm0 19.673a2 2 0 012-2H31a2 2 0 012 2V31a2 2 0 01-2 2h-9.327a2 2 0 01-2-2v-9.327z"/></svg><svg viewBox="0 0 33 33" id="list" xmlns="http://www.w3.org/2000/svg"><path d="M0 2a2 2 0 012-2h29a2 2 0 012 2v4.4a2 2 0 01-2 2H2a2 2 0 01-2-2V2zm0 12.4a2 2 0 012-2h29a2 2 0 012 2v4.4a2 2 0 01-2 2H2a2 2 0 01-2-2v-4.4zm0 12.2a2 2 0 012-2h29a2 2 0 012 2V31a2 2 0 01-2 2H2a2 2 0 01-2-2v-4.4z"/></svg><svg viewBox="0 0 21 20" id="location" xmlns="http://www.w3.org/2000/svg"><path d="M10.5 10.625a2.5 2.5 0 100-5 2.5 2.5 0 000 5z"/><path d="M16.75 8.125c0 5.625-6.25 10-6.25 10s-6.25-4.375-6.25-10a6.25 6.25 0 0112.5 0z"/></svg><svg viewBox="0 0 20 16" id="mail" xmlns="http://www.w3.org/2000/svg"><path d="M20 4.608v8.142a3.25 3.25 0 01-3.066 3.245L16.75 16H3.25a3.25 3.25 0 01-3.245-3.066L0 12.75V4.608l9.652 5.056a.75.75 0 00.696 0L20 4.608zM3.25 0h13.5a3.25 3.25 0 013.234 2.924L10 8.154.016 2.924A3.25 3.25 0 013.064.005L3.25 0h13.5-13.5z"/></svg><svg viewBox="0 0 32 32" id="path" xmlns="http://www.w3.org/2000/svg"><path d="M25 28a3 3 0 100-6 3 3 0 000 6z"/><path d="M9 7h12a4 4 0 110 8H9a5 5 0 000 10h13"/></svg><svg viewBox="0 0 21 20" id="phone" xmlns="http://www.w3.org/2000/svg"><path d="M7.727 9.75a6.531 6.531 0 003.046 3.04.626.626 0 00.618-.048l1.953-1.305a.618.618 0 01.594-.054l3.656 1.57a.617.617 0 01.375.649 3.75 3.75 0 01-3.719 3.273A10.625 10.625 0 013.625 6.25a3.75 3.75 0 013.273-3.719.617.617 0 01.649.375l1.57 3.664a.625.625 0 01-.047.586L7.766 9.141a.625.625 0 00-.04.609z"/></svg><svg viewBox="0 0 25 29" id="play" xmlns="http://www.w3.org/2000/svg"><path d="M23.979 12.765c1.339.77 1.339 2.7 0 3.47L2.996 28.28C1.662 29.046 0 28.083 0 26.546V2.454C0 .917 1.662-.046 2.996.72l20.983 12.045z"/></svg><svg viewBox="0 0 7 6" id="triangle" xmlns="http://www.w3.org/2000/svg"><path d="M3.5 5.5L0 .5h7l-3.5 5z"/></svg></svg>